<?xml version="1.0" encoding="UTF-8"?><svg id="Layer_1" xmlns="http://www.w3.org/2000/svg" viewBox="0 0 1024 1024"><rect x="0" y="0" width="1024" height="1024" rx="512" ry="512"/><g><path d="M480.53,416.57v86.15H222.58V163.97h18.01v252.6h239.94Z" style="fill:#fff;"/><path d="M762.8,175.41c21.41,12.49,38.37,29.44,50.86,50.86,12.49,21.41,18.74,44.78,18.74,70.08v73.98c0,25.31-6.25,48.67-18.74,70.08-12.49,21.42-29.45,38.37-50.86,50.86-21.42,12.49-44.78,18.74-70.08,18.74s-48.67-6.25-70.08-18.74c-21.41-12.49-38.37-29.44-50.86-50.86-12.49-21.41-18.74-44.78-18.74-70.08v-73.98c0-25.31,6.24-48.67,18.74-70.08,12.49-21.42,29.45-38.37,50.86-50.86,21.42-12.49,44.78-18.74,70.08-18.74s48.67,6.25,70.08,18.74Zm-175.45,256c10.87,18.66,25.63,33.42,44.29,44.29,18.65,10.87,39.01,16.3,61.08,16.3s42.42-5.43,61.08-16.3c18.65-10.87,33.42-25.63,44.29-44.29,10.87-18.65,16.3-39.01,16.3-61.08v-73.98c0-22.06-5.44-42.42-16.3-61.08-10.87-18.65-25.63-33.42-44.29-44.29-18.66-10.87-39.02-16.3-61.08-16.3s-42.43,5.44-61.08,16.3c-18.66,10.87-33.42,25.64-44.29,44.29-10.88,18.66-16.3,39.02-16.3,61.08v73.98c0,22.07,5.43,42.43,16.3,61.08Z" style="fill:#fff;"/><path d="M269.54,582.95c-18.66,10.87-33.51,25.63-44.53,44.29-11.03,18.66-16.55,39.02-16.55,61.08v64.24c0,23.04,3.24,42.02,9.73,56.94,9.08,21.1,22.87,38.29,41.37,51.59,18.49,13.31,39.25,20.77,62.3,22.39v-158.18h148.44v32.12c0,20.77-3.09,39.26-9.25,55.48-10.06,26.94-26.94,48.51-50.62,64.73-23.69,16.23-50.46,24.33-80.31,24.33-28.23,0-53.95-7.7-77.14-23.12-23.2-15.41-40.15-35.93-50.86-61.57-7.79-18.17-11.68-39.74-11.68-64.73v-64.24c0-25.31,6.24-48.67,18.74-70.08,12.49-21.42,29.44-38.37,50.86-50.86,21.41-12.49,44.78-18.74,70.08-18.74,21.09,0,40.4,3.49,57.92,10.46,17.52,6.98,32.44,17.12,44.78,30.42,10.05,11.03,18.25,23.36,24.58,36.99,6.33,13.63,9.49,27.42,9.49,41.37h-17.52c-.33-12-3.33-23.85-9-35.53-5.68-11.68-12.9-22.22-21.66-31.64-21.74-22.71-51.27-34.07-88.58-34.07-21.74,0-41.94,5.44-60.59,16.3Zm182.75,159.88h-112.91v140.66c23.36-1.62,44.37-9,63.03-22.14,18.65-13.14,32.37-30.58,41.13-52.32,5.84-15.25,8.76-32.44,8.76-51.59v-14.6Z" style="fill:#fff;"/><path d="M570.56,617.27c12.65-21.73,29.76-38.94,51.35-51.59,21.57-12.65,45.18-18.98,70.81-18.98s49.23,6.33,70.81,18.98c21.58,12.65,38.69,29.86,51.35,51.59,12.65,21.74,18.98,45.26,18.98,70.57v74.95c0,25.31-6.33,48.84-18.98,70.57-12.65,21.74-29.77,38.94-51.35,51.59-21.58,12.65-45.19,18.98-70.81,18.98s-49.24-6.33-70.81-18.98c-21.58-12.65-38.69-29.85-51.35-51.59-12.65-21.73-18.98-45.26-18.98-70.57v-74.95c0-25.31,6.33-48.83,18.98-70.57Zm84.2,185.43c9.73,11.03,22.39,16.55,37.96,16.55s27.74-5.51,37.48-16.55c9.73-11.03,14.6-24.33,14.6-39.91v-75.44c0-15.89-4.87-29.2-14.6-39.91-9.73-10.71-22.23-16.06-37.48-16.06s-28.23,5.35-37.96,16.06c-9.73,10.71-14.6,24.02-14.6,39.91v75.44c0,15.57,4.87,28.88,14.6,39.91Z" style="fill:#fff;"/></g></svg>